<svg version="1.1" xmlns="http://www.w3.org/2000/svg" viewBox="-366.49023887063646 -20.992786813285363 732.9804777412729 41.985573626570726" fill="none" stroke="black" stroke-width="0.6%" vector-effect="non-scaling-stroke">
    <path d="M -342.29884 7.27634 L -21.64925 17.70487" />
    <path d="M -342.29884 -9.71753 L -21.64925 0.711" />
    <path d="M -342.29884 7.27634 L -342.29884 -9.71753" />
    <path d="M -21.64925 19.28868 L -21.64925 -0.7041 L 0 0 L 26.2166 -0.58144 L 13.48175 -0.99561" />
    <path d="M -6.22772 -1.04612 L -21.64925 -0.7041" />
    <path d="M -328.41946 -10.51298 L -326.53879 -10.55469 L -326.53879 -12.05415 L -339.27364 -12.46832 L -365.49024 -11.88689 L -343.84099 -11.18279 L -328.41946 -11.52481 L -328.41946 -10.02535 L -342.29884 -9.71753" />
    <path d="M -24.94311 -17.87047 L -326.53879 -11.18164" />
    <path d="M -13.48175 -17.49771 L -24.94311 -17.87047" />
    <path d="M -13.48175 -17.49771 L -2.68668 -17.73713 L 6.22772 -17.4472 L 6.22772 -18.94666 L 21.64925 -19.28868 L 0 -19.99279 L -26.2166 -19.41135 L -13.48175 -18.99717 L -13.48175 -17.49771 Z" />
    <path d="M 20.10709 -17.75502 L 6.22772 -17.4472" />
    <path d="M 326.53879 -7.7889 L 20.10709 -17.75502" />
    <path d="M 338.00015 -6.06642 L 326.53879 -6.43918 L 326.53879 -7.93864 L 339.27364 -7.52446 L 365.49024 -8.1059 L 343.84099 -8.81 L 328.41946 -8.46798 L 328.41946 -7.98035" />
    <path d="M 26.2166 0.84836 L 338.00015 -6.06642 L 338.00015 10.92745" />
    <path d="M -343.84099 8.81 L -328.41946 8.46798" />
    <path d="M -328.41946 7.72774 L -328.41946 8.46798" />
    <path d="M -343.84099 8.81 L -343.84099 -11.18279" />
    <path d="M -21.64925 19.28868 L 0 19.99279 L 0 0" />
    <path d="M 0 19.99279 L 26.2166 19.41135 L 26.2166 -0.58144" />
    <path d="M -6.22772 -1.04612 L 2.68668 -0.7562 L 13.48175 -0.99561" />
    <path d="M -337.33386 -11.81473 L -328.41946 -11.52481" />
    <path d="M -326.53879 -12.05415 L -337.33386 -11.81473" />
    <path d="M -326.53879 7.93864 L -326.53879 7.7889" />
    <path d="M -26.2166 -17.84223 L -26.2166 -19.41135" />
    <path d="M -2.68668 -17.73713 L -2.68668 -19.23659 L -13.48175 -18.99717" />
    <path d="M 6.22772 -18.94666 L -2.68668 -19.23659" />
    <path d="M 21.64925 -17.70487 L 21.64925 -19.28868" />
    <path d="M 337.33386 -8.17805 L 328.41946 -8.46798" />
    <path d="M 326.53879 -7.93864 L 337.33386 -8.17805" />
    <path d="M 326.53879 12.05415 L 339.27364 12.46832 L 365.49024 11.88689 L 365.49024 -8.1059" />
    <path d="M 339.27364 12.46832 L 339.27364 -7.52446" />
    <path d="M 326.53879 12.05415 L 326.53879 11.18164" />
    <path d="M 26.2166 17.84223 L 338.00015 10.92745" />
    <path d="M -326.53879 7.93864 L -328.41946 7.98035" />
    <path d="M -365.49024 8.1059 L -343.84099 8.81" />
    <path d="M -365.49024 8.1059 L -365.49024 -11.88689" />
</svg>