<svg version="1.1" xmlns="http://www.w3.org/2000/svg" viewBox="-366.49023887063646 -20.9099513519742 732.9804777412729 41.8199027039484" fill="none" stroke="black" stroke-width="0.6%" vector-effect="non-scaling-stroke">
    <path d="M -342.29884 7.27634 L -24.19622 17.62203" />
    <path d="M -342.29884 -9.71753 L -342.29884 7.27634" />
    <path d="M -342.29884 -9.71753 L -24.19622 0.62816" />
    <path d="M -343.84099 8.81 L -328.41946 8.46798" />
    <path d="M -343.84099 8.81 L -343.84099 -11.18279 L -328.41946 -11.52481 L -328.41946 -10.02535 L -342.29884 -9.71753" />
    <path d="M -328.41946 7.72774 L -328.41946 8.46798" />
    <path d="M -328.41946 -10.51298 L -326.53879 -10.55469 L -326.53879 -12.05415 L -339.27364 -12.46832 L -365.49024 -11.88689 L -343.84099 -11.18279" />
    <path d="M -23.66963 -17.89872 L -326.53879 -11.18164" />
    <path d="M -10.93478 -17.41488 L -23.66963 -17.82906 L -23.66963 -19.32851 L -10.93478 -18.91434 L -10.93478 -17.41488 L -0.13971 -17.65429 L 8.77469 -17.36437 L 8.77469 -18.86383 L 24.19622 -19.20585 L 2.54697 -19.90995 L -23.66963 -19.32851" />
    <path d="M 22.65406 -17.67219 L 8.77469 -17.36437" />
    <path d="M 326.53879 -7.7889 L 22.65406 -17.67219" />
    <path d="M 338.00015 -6.06642 L 326.53879 -6.43918 L 326.53879 -7.93864 L 339.27364 -7.52446 L 365.49024 -8.1059 L 343.84099 -8.81 L 328.41946 -8.46798 L 328.41946 -7.98035" />
    <path d="M 0.26867 1.42384 L 338.00015 -6.06642 L 338.00015 10.92745" />
    <path d="M -1.00482 1.38242 L 0.26867 1.42384" />
    <path d="M 23.66963 0.83519 L -1.00482 1.38242" />
    <path d="M -8.77469 -1.12896 L -24.19622 -0.78694 L -2.54697 -0.08284 L 23.66963 -0.66427 L 10.93478 -1.07845" />
    <path d="M -24.19622 19.20585 L -24.19622 -0.78694" />
    <path d="M -326.53879 7.93864 L -328.41946 7.98035" />
    <path d="M -365.49024 8.1059 L -343.84099 8.81" />
    <path d="M -365.49024 8.1059 L -365.49024 -11.88689" />
    <path d="M -326.53879 -12.05415 L -337.33386 -11.81473 L -328.41946 -11.52481" />
    <path d="M -326.53879 7.93864 L -326.53879 7.7889" />
    <path d="M -0.13971 -17.65429 L -0.13971 -19.15375 L -10.93478 -18.91434" />
    <path d="M 8.77469 -18.86383 L -0.13971 -19.15375" />
    <path d="M 24.19622 -17.62203 L 24.19622 -19.20585" />
    <path d="M 337.33386 -8.17805 L 328.41946 -8.46798" />
    <path d="M 326.53879 -7.93864 L 337.33386 -8.17805" />
    <path d="M 326.53879 12.05415 L 339.27364 12.46832 L 365.49024 11.88689 L 365.49024 -8.1059" />
    <path d="M 326.53879 12.05415 L 326.53879 11.18164" />
    <path d="M 339.27364 12.46832 L 339.27364 -7.52446" />
    <path d="M 0.26867 18.41771 L 338.00015 10.92745" />
    <path d="M 0.26867 18.41771 L 0.26867 1.42384" />
    <path d="M -1.00482 18.37629 L 0.26867 18.41771" />
    <path d="M -1.00482 18.37629 L -1.00482 1.38242" />
    <path d="M -2.54697 19.90995 L 23.66963 19.32851 L 23.66963 17.89872" />
    <path d="M 23.66963 0.83519 L 23.66963 -0.66427" />
    <path d="M -2.54697 19.90995 L -2.54697 -0.08284" />
    <path d="M 0.13971 -0.83903 L 10.93478 -1.07845" />
    <path d="M -8.77469 -1.12896 L 0.13971 -0.83903" />
    <path d="M -24.19622 19.20585 L -2.54697 19.90995" />
</svg>